<?xml version="1.0" encoding="iso-8859-1"?>
<!-- Generator: Adobe Illustrator 18.1.1, SVG Export Plug-In . SVG Version: 6.00 Build 0)  -->
<svg version="1.1" id="Capa_1" xmlns="http://www.w3.org/2000/svg" xmlns:xlink="http://www.w3.org/1999/xlink" x="0px" y="0px"
	 viewBox="0 0 27.428 27.428" style="enable-background:new 0 0 27.428 27.428;" xml:space="preserve">
<g>
	<path d="M12.381,6.63C5.543,6.63,0,10.288,0,14.797c0,3.569,3.475,6.605,8.315,7.716c0,0,1.407,0.681-0.905,3.045
		c-0.962,0.982,3.81-1.517,4.828-2.221c0.33-0.23,0.426-0.289,0.734-0.355c0.271-0.041,0.496-0.05,0.608-0.056
		c6.271-0.398,11.177-3.886,11.177-8.129C24.758,10.288,19.215,6.63,12.381,6.63z M14.091,21.962
		c-0.093,0.007-0.271,0.013-0.485,0.045c-0.252,0.056-0.326-0.103-0.594,0.08c-0.813,0.564-3.173,2.339-4.529,2.809
		c1.848-1.889,0.948-3.265,0.948-3.265c-3.871-0.888-7.77-3.479-7.77-6.333c-0.226-4.272,4.644-7.617,11.47-7.359
		c5.466,0,9.9,3.914,9.9,7.52C23.031,18.853,19.107,21.645,14.091,21.962z"/>
	<path d="M8.271,15.364c0,1.04-0.845,1.884-1.886,1.884c-1.042,0-1.886-0.845-1.886-1.884c0-1.043,0.844-1.887,1.886-1.887
		C7.426,13.477,8.271,14.32,8.271,15.364z"/>
	<path d="M14.264,15.364c0,1.04-0.844,1.884-1.885,1.884s-1.886-0.845-1.886-1.884c0-1.043,0.845-1.887,1.886-1.887
		S14.264,14.32,14.264,15.364z"/>
	<circle cx="17.85" cy="15.149" r="1.885"/>
	<path d="M4.5,6.994c0,0,5.158-3.159,12.372-2.018c0,0,3.899,0.674,6.085,2.625c2.588,1.969,2.926,4.497,3.012,5.875
		c0,0,3.473-3.657-0.297-8.119c0,0-3.063-3.779-9.069-3.712c0,0-3.177,0.019-5.606,0.777C10.996,2.423,6.663,3.398,4.5,6.994z"/>
	<g>
	</g>
	<g>
	</g>
	<g>
	</g>
	<g>
	</g>
	<g>
	</g>
	<g>
	</g>
	<g>
	</g>
	<g>
	</g>
	<g>
	</g>
	<g>
	</g>
	<g>
	</g>
	<g>
	</g>
	<g>
	</g>
	<g>
	</g>
	<g>
	</g>
</g>
<g>
</g>
<g>
</g>
<g>
</g>
<g>
</g>
<g>
</g>
<g>
</g>
<g>
</g>
<g>
</g>
<g>
</g>
<g>
</g>
<g>
</g>
<g>
</g>
<g>
</g>
<g>
</g>
<g>
</g>
</svg>
